{
  "accessors": [
    {
      "bufferView": 2,
      "componentType": 5126,
      "count": 18852,
      "max": [
        55.035667419433594,
        95.102027893066406,
        87.422325134277344
      ],
      "min": [
        -55.035667419433594,
        0,
        -96.1373291015625
      ],
      "type": "VEC3"
    },
    {
      "bufferView": 2,
      "byteOffset": 226224,
      "componentType": 5126,
      "count": 18852,
      "max": [
        1,
        1,
        1
      ],
      "min": [
        -1,
        -1,
        -1
      ],
      "type": "VEC3"
    },
    {
      "bufferView": 3,
      "componentType": 5126,
      "count": 18852,
      "max": [
        1,
        0.99953669309616089,
        1,
        1
      ],
      "min": [
        -1,
        -0.99966460466384888,
        -1,
        -1
      ],
      "type": "VEC4"
    },
    {
      "bufferView": 1,
      "componentType": 5126,
      "count": 18852,
      "max": [
        0.99597299098968506,
        0.99391800165176392
      ],
      "min": [
        0.0070509999059140682,
        0.0033809999004006386
      ],
      "type": "VEC2"
    },
    {
      "bufferView": 1,
      "byteOffset": 150816,
      "componentType": 5126,
      "count": 18852,
      "max": [
        0.99597299098968506,
        0.99391800165176392
      ],
      "min": [
        0.0070509999059140682,
        0.0033809999004006386
      ],
      "type": "VEC2"
    },
    {
      "bufferView": 1,
      "byteOffset": 301632,
      "componentType": 5126,
      "count": 18852,
      "max": [
        0.99597299098968506,
        0.99391800165176392
      ],
      "min": [
        0.0070509999059140682,
        0.0033809999004006386
      ],
      "type": "VEC2"
    },
    {
      "bufferView": 1,
      "byteOffset": 452448,
      "componentType": 5126,
      "count": 18852,
      "max": [
        0.99597299098968506,
        0.99391800165176392
      ],
      "min": [
        0.0070509999059140682,
        0.0033809999004006386
      ],
      "type": "VEC2"
    },
    {
      "bufferView": 1,
      "byteOffset": 603264,
      "componentType": 5126,
      "count": 18852,
      "max": [
        0.99597299098968506,
        0.99391800165176392
      ],
      "min": [
        0.0070509999059140682,
        0.0033809999004006386
      ],
      "type": "VEC2"
    },
    {
      "bufferView": 0,
      "componentType": 5125,
      "count": 97488,
      "max": [
        18851
      ],
      "min": [
        0
      ],
      "type": "SCALAR"
    }
  ],
  "asset": {
    "extras": {
      "author": "Xarpie_Labs (https://sketchfab.com/Xarpie_Labs)",
      "license": "CC-BY-4.0 (http://creativecommons.org/licenses/by/4.0/)",
      "source": "https://sketchfab.com/3d-models/sofa-0ed4312fc8314a85a99fae56e5f0dbe5",
      "title": "Sofa"
    },
    "generator": "Sketchfab-8.87.0",
    "version": "2.0"
  },
  "bufferViews": [
    {
      "buffer": 0,
      "byteLength": 389952,
      "byteOffset": 0,
      "name": "floatBufferViews",
      "target": 34963
    },
    {
      "buffer": 0,
      "byteLength": 754080,
      "byteOffset": 389952,
      "byteStride": 8,
      "name": "floatBufferViews",
      "target": 34962
    },
    {
      "buffer": 0,
      "byteLength": 452448,
      "byteOffset": 1144032,
      "byteStride": 12,
      "name": "floatBufferViews",
      "target": 34962
    },
    {
      "buffer": 0,
      "byteLength": 301632,
      "byteOffset": 1596480,
      "byteStride": 16,
      "name": "floatBufferViews",
      "target": 34962
    }
  ],
  "buffers": [
    {
      "byteLength": 1898112,
      "uri": "scene.bin"
    }
  ],
  "images": [
    {
      "uri": "textures/Alpha_Chaise_Lounge_baseColor.png"
    },
    {
      "uri": "textures/Alpha_Chaise_Lounge_metallicRoughness.png"
    },
    {
      "uri": "textures/Alpha_Chaise_Lounge_normal.png"
    }
  ],
  "materials": [
    {
      "doubleSided": true,
      "emissiveFactor": [
        0,
        0,
        0
      ],
      "name": "Alpha_Chaise_Lounge",
      "normalTexture": {
        "index": 2,
        "scale": 1,
        "texCoord": 0
      },
      "occlusionTexture": {
        "index": 1,
        "strength": 1,
        "texCoord": 0
      },
      "pbrMetallicRoughness": {
        "baseColorFactor": [
          1,
          1,
          1,
          1
        ],
        "baseColorTexture": {
          "index": 0,
          "texCoord": 0
        },
        "metallicFactor": 1,
        "metallicRoughnessTexture": {
          "index": 1,
          "texCoord": 0
        },
        "roughnessFactor": 1
      }
    }
  ],
  "meshes": [
    {
      "primitives": [
        {
          "attributes": {
            "NORMAL": 1,
            "POSITION": 0,
            "TANGENT": 2,
            "TEXCOORD_0": 3,
            "TEXCOORD_1": 4,
            "TEXCOORD_2": 5,
            "TEXCOORD_3": 6,
            "TEXCOORD_4": 7
          },
          "indices": 8,
          "material": 0,
          "mode": 4
        }
      ]
    }
  ],
  "nodes": [
    {
      "children": [
        1
      ],
      "name": "RootNode (gltf orientation matrix)",
      "rotation": [
        -0.70710678118654746,
        -0,
        -0,
        0.70710678118654757
      ]
    },
    {
      "children": [
        2
      ],
      "name": "RootNode (model correction matrix)"
    },
    {
      "children": [
        3
      ],
      "name": "root"
    },
    {
      "children": [
        4
      ],
      "matrix": [
        1,
        0,
        0,
        0,
        0,
        2.2204460492503131e-16,
        1,
        0,
        0,
        -1,
        2.2204460492503131e-16,
        0,
        0,
        0,
        0,
        1
      ],
      "name": "GLTF_SceneRootNode"
    },
    {
      "children": [
        5
      ],
      "matrix": [
        1,
        0,
        -0,
        0,
        -0,
        0,
        -1,
        0,
        0,
        1,
        0,
        0,
        0,
        0,
        0,
        1
      ],
      "name": "RootNode (gltf orientation matrix)_0"
    },
    {
      "children": [
        6
      ],
      "name": "RootNode (model correction matrix)_1"
    },
    {
      "children": [
        7
      ],
      "matrix": [
        1,
        0,
        0,
        0,
        0,
        -4.3711388286737929e-08,
        1,
        0,
        0,
        -1,
        -4.3711388286737929e-08,
        0,
        0,
        0,
        0,
        1
      ],
      "name": "Collada visual scene group_2"
    },
    {
      "children": [
        8
      ],
      "name": "Alpha_Chaise_Lounge_3"
    },
    {
      "children": [
        9
      ],
      "name": "defaultMaterial_4"
    },
    {
      "mesh": 0,
      "name": ""
    }
  ],
  "samplers": [
    {
      "magFilter": 9729,
      "minFilter": 9987,
      "wrapS": 10497,
      "wrapT": 10497
    }
  ],
  "scene": 0,
  "scenes": [
    {
      "name": "OSG_Scene",
      "nodes": [
        0
      ]
    }
  ],
  "textures": [
    {
      "sampler": 0,
      "source": 0
    },
    {
      "sampler": 0,
      "source": 1
    },
    {
      "sampler": 0,
      "source": 2
    }
  ]
}

