{
  "accessors": [
    {
      "bufferView": 2,
      "componentType": 5126,
      "count": 65532,
      "max": [
        0.51412642002105713,
        0.87427103519439697,
        0.25952291488647461
      ],
      "min": [
        -0.51412642002105713,
        -0.51412642002105713,
        -0.67500865459442139
      ],
      "type": "VEC3"
    },
    {
      "bufferView": 2,
      "byteOffset": 786384,
      "componentType": 5126,
      "count": 65532,
      "max": [
        1,
        1,
        1
      ],
      "min": [
        -1,
        -1,
        -1
      ],
      "type": "VEC3"
    },
    {
      "bufferView": 3,
      "componentType": 5126,
      "count": 65532,
      "max": [
        0.99996626377105713,
        0.99999082088470459,
        1,
        1
      ],
      "min": [
        -0.99999648332595825,
        -0.9999769926071167,
        -1,
        -1
      ],
      "type": "VEC4"
    },
    {
      "bufferView": 1,
      "componentType": 5126,
      "count": 65532,
      "max": [
        0.99992823600769043,
        0.99638068675994873
      ],
      "min": [
        0,
        0
      ],
      "type": "VEC2"
    },
    {
      "bufferView": 0,
      "componentType": 5125,
      "count": 321495,
      "max": [
        65531
      ],
      "min": [
        0
      ],
      "type": "SCALAR"
    },
    {
      "bufferView": 2,
      "byteOffset": 1572768,
      "componentType": 5126,
      "count": 65532,
      "max": [
        0.24647028744220734,
        0.86424148082733154,
        0.25952291488647461
      ],
      "min": [
        -0.24647039175033569,
        -0.8742709755897522,
        -0.67500865459442139
      ],
      "type": "VEC3"
    },
    {
      "bufferView": 2,
      "byteOffset": 2359152,
      "componentType": 5126,
      "count": 65532,
      "max": [
        1,
        1,
        1
      ],
      "min": [
        -1,
        -1,
        -1
      ],
      "type": "VEC3"
    },
    {
      "bufferView": 3,
      "byteOffset": 1048512,
      "componentType": 5126,
      "count": 65532,
      "max": [
        0.99994534254074097,
        0.9999769926071167,
        1,
        1
      ],
      "min": [
        -1,
        -0.99999082088470459,
        -1,
        -1
      ],
      "type": "VEC4"
    },
    {
      "bufferView": 1,
      "byteOffset": 524256,
      "componentType": 5126,
      "count": 65532,
      "max": [
        0.99962180852890015,
        0.99638062715530396
      ],
      "min": [
        0,
        0
      ],
      "type": "VEC2"
    },
    {
      "bufferView": 0,
      "byteOffset": 1285980,
      "componentType": 5125,
      "count": 320748,
      "max": [
        65531
      ],
      "min": [
        0
      ],
      "type": "SCALAR"
    },
    {
      "bufferView": 2,
      "byteOffset": 3145536,
      "componentType": 5126,
      "count": 65532,
      "max": [
        0.11734925955533981,
        0.24647027254104614,
        0.25952288508415222
      ],
      "min": [
        -0.87427103519439697,
        -0.86424142122268677,
        -0.67500877380371094
      ],
      "type": "VEC3"
    },
    {
      "bufferView": 2,
      "byteOffset": 3931920,
      "componentType": 5126,
      "count": 65532,
      "max": [
        1,
        1,
        1
      ],
      "min": [
        -1,
        -1,
        -1
      ],
      "type": "VEC3"
    },
    {
      "bufferView": 3,
      "byteOffset": 2097024,
      "componentType": 5126,
      "count": 65532,
      "max": [
        0.99997705221176147,
        0.99986875057220459,
        1,
        1
      ],
      "min": [
        -0.99999082088470459,
        -0.99990576505661011,
        -1,
        -1
      ],
      "type": "VEC4"
    },
    {
      "bufferView": 1,
      "byteOffset": 1048512,
      "componentType": 5126,
      "count": 65532,
      "max": [
        0.99996453523635864,
        0.99896526336669922
      ],
      "min": [
        0,
        0
      ],
      "type": "VEC2"
    },
    {
      "bufferView": 0,
      "byteOffset": 2568972,
      "componentType": 5125,
      "count": 321024,
      "max": [
        65531
      ],
      "min": [
        0
      ],
      "type": "SCALAR"
    },
    {
      "bufferView": 2,
      "byteOffset": 4718304,
      "componentType": 5126,
      "count": 65532,
      "max": [
        0.8742709755897522,
        0.24647034704685211,
        0.25952288508415222
      ],
      "min": [
        -0.86899065971374512,
        -0.24647031724452972,
        -0.67500877380371094
      ],
      "type": "VEC3"
    },
    {
      "bufferView": 2,
      "byteOffset": 5504688,
      "componentType": 5126,
      "count": 65532,
      "max": [
        1,
        1,
        1
      ],
      "min": [
        -1,
        -1,
        -1
      ],
      "type": "VEC3"
    },
    {
      "bufferView": 3,
      "byteOffset": 3145536,
      "componentType": 5126,
      "count": 65532,
      "max": [
        0.99999082088470459,
        0.9999660849571228,
        1,
        1
      ],
      "min": [
        -0.99997705221176147,
        -1,
        -1,
        -1
      ],
      "type": "VEC4"
    },
    {
      "bufferView": 1,
      "byteOffset": 1572768,
      "componentType": 5126,
      "count": 65532,
      "max": [
        0.99921846389770508,
        0.99638062715530396
      ],
      "min": [
        0,
        0
      ],
      "type": "VEC2"
    },
    {
      "bufferView": 0,
      "byteOffset": 3853068,
      "componentType": 5125,
      "count": 320691,
      "max": [
        65531
      ],
      "min": [
        0
      ],
      "type": "SCALAR"
    },
    {
      "bufferView": 2,
      "byteOffset": 6291072,
      "componentType": 5126,
      "count": 33877,
      "max": [
        0.87273257970809937,
        0.11734931170940399,
        0.24780713021755219
      ],
      "min": [
        0.76885688304901123,
        -0.11734918504953384,
        -0.052096739411354065
      ],
      "type": "VEC3"
    },
    {
      "bufferView": 2,
      "byteOffset": 6697596,
      "componentType": 5126,
      "count": 33877,
      "max": [
        0.99995481967926025,
        0.99993085861206055,
        0.9984123706817627
      ],
      "min": [
        -0.99999511241912842,
        -0.99991822242736816,
        -0.99740242958068848
      ],
      "type": "VEC3"
    },
    {
      "bufferView": 3,
      "byteOffset": 4194048,
      "componentType": 5126,
      "count": 33877,
      "max": [
        0.99915099143981934,
        0.99996614456176758,
        0.99999529123306274,
        1
      ],
      "min": [
        -0.99842017889022827,
        -0.99999648332595825,
        -0.99997639656066895,
        1
      ],
      "type": "VEC4"
    },
    {
      "bufferView": 1,
      "byteOffset": 2097024,
      "componentType": 5126,
      "count": 33877,
      "max": [
        0.94881457090377808,
        0.95096355676651001
      ],
      "min": [
        0.09632585197687149,
        0.2080046534538269
      ],
      "type": "VEC2"
    },
    {
      "bufferView": 0,
      "byteOffset": 5135832,
      "componentType": 5125,
      "count": 160650,
      "max": [
        33876
      ],
      "min": [
        0
      ],
      "type": "SCALAR"
    },
    {
      "bufferView": 2,
      "byteOffset": 7104120,
      "componentType": 5126,
      "count": 23340,
      "max": [
        0.80703365802764893,
        0.80703365802764893,
        -0.035067487508058548
      ],
      "min": [
        -0.80703365802764893,
        -0.80703365802764893,
        -0.23128169775009155
      ],
      "type": "VEC3"
    },
    {
      "bufferView": 2,
      "byteOffset": 7384200,
      "componentType": 5126,
      "count": 23340,
      "max": [
        1,
        1,
        1
      ],
      "min": [
        -1,
        -1,
        -1
      ],
      "type": "VEC3"
    },
    {
      "bufferView": 3,
      "byteOffset": 4736080,
      "componentType": 5126,
      "count": 23340,
      "max": [
        0.99998146295547485,
        0.99998331069946289,
        1,
        1
      ],
      "min": [
        -0.99998325109481812,
        -0.99998140335083008,
        -1,
        1
      ],
      "type": "VEC4"
    },
    {
      "bufferView": 1,
      "byteOffset": 2368040,
      "componentType": 5126,
      "count": 23340,
      "max": [
        0.99485331773757935,
        0.97200864553451538
      ],
      "min": [
        0,
        0
      ],
      "type": "VEC2"
    },
    {
      "bufferView": 0,
      "byteOffset": 5778432,
      "componentType": 5125,
      "count": 118272,
      "max": [
        23339
      ],
      "min": [
        0
      ],
      "type": "SCALAR"
    },
    {
      "bufferView": 2,
      "byteOffset": 7664280,
      "componentType": 5126,
      "count": 3132,
      "max": [
        0.53336071968078613,
        0.53336077928543091,
        0.026228170841932297
      ],
      "min": [
        -0.53336071968078613,
        -0.53336077928543091,
        1.1563489721311271e-08
      ],
      "type": "VEC3"
    },
    {
      "bufferView": 2,
      "byteOffset": 7701864,
      "componentType": 5126,
      "count": 3132,
      "max": [
        0.99995553493499756,
        0.99995553493499756,
        1
      ],
      "min": [
        -0.99995553493499756,
        -0.99995589256286621,
        -0.99912512302398682
      ],
      "type": "VEC3"
    },
    {
      "bufferView": 3,
      "byteOffset": 5109520,
      "componentType": 5126,
      "count": 3132,
      "max": [
        1,
        0.99985820055007935,
        0.99995559453964233,
        1
      ],
      "min": [
        -0.99994701147079468,
        -0.97659295797348022,
        -0.35540598630905151,
        -1
      ],
      "type": "VEC4"
    },
    {
      "bufferView": 1,
      "byteOffset": 2554760,
      "componentType": 5126,
      "count": 3132,
      "max": [
        0.91960340738296509,
        0.58999156951904297
      ],
      "min": [
        0.004679595585912466,
        0.0027817292138934135
      ],
      "type": "VEC2"
    },
    {
      "bufferView": 1,
      "byteOffset": 2579816,
      "componentType": 5126,
      "count": 3132,
      "max": [
        0.91960340738296509,
        0.58999156951904297
      ],
      "min": [
        0.004679595585912466,
        0.0027817292138934135
      ],
      "type": "VEC2"
    },
    {
      "bufferView": 0,
      "byteOffset": 6251520,
      "componentType": 5125,
      "count": 15360,
      "max": [
        3131
      ],
      "min": [
        0
      ],
      "type": "SCALAR"
    },
    {
      "bufferView": 2,
      "byteOffset": 7739448,
      "componentType": 5126,
      "count": 21464,
      "max": [
        0.2669658362865448,
        0.27284961938858032,
        -0.035067528486251831
      ],
      "min": [
        -0.2669658362865448,
        -0.27284961938858032,
        -0.67458981275558472
      ],
      "type": "VEC3"
    },
    {
      "bufferView": 2,
      "byteOffset": 7997016,
      "componentType": 5126,
      "count": 21464,
      "max": [
        1,
        1,
        1
      ],
      "min": [
        -1,
        -1,
        -1
      ],
      "type": "VEC3"
    },
    {
      "bufferView": 3,
      "byteOffset": 5159632,
      "componentType": 5126,
      "count": 21464,
      "max": [
        1,
        1,
        1,
        1
      ],
      "min": [
        -1,
        -1,
        -1,
        -1
      ],
      "type": "VEC4"
    },
    {
      "bufferView": 1,
      "byteOffset": 2604872,
      "componentType": 5126,
      "count": 21464,
      "max": [
        0.91903328895568848,
        0.83709877729415894
      ],
      "min": [
        0.2216523140668869,
        0.27009424567222595
      ],
      "type": "VEC2"
    },
    {
      "bufferView": 0,
      "byteOffset": 6312960,
      "componentType": 5125,
      "count": 104517,
      "max": [
        21463
      ],
      "min": [
        0
      ],
      "type": "SCALAR"
    }
  ],
  "asset": {
    "extras": {
      "author": "martin_dalm (https://sketchfab.com/martin_dalm)",
      "license": "CC-BY-4.0 (http://creativecommons.org/licenses/by/4.0/)",
      "source": "https://sketchfab.com/3d-models/coffeeshop-furniture-set-3f78974efee9414cb8017cef472508f4",
      "title": "Coffeeshop Furniture Set"
    },
    "generator": "Sketchfab-6.70.0",
    "version": "2.0"
  },
  "bufferViews": [
    {
      "buffer": 0,
      "byteLength": 6731028,
      "byteOffset": 0,
      "name": "floatBufferViews",
      "target": 34963
    },
    {
      "buffer": 0,
      "byteLength": 2776584,
      "byteOffset": 6731028,
      "byteStride": 8,
      "name": "floatBufferViews",
      "target": 34962
    },
    {
      "buffer": 0,
      "byteLength": 8254584,
      "byteOffset": 9507612,
      "byteStride": 12,
      "name": "floatBufferViews",
      "target": 34962
    },
    {
      "buffer": 0,
      "byteLength": 5503056,
      "byteOffset": 17762196,
      "byteStride": 16,
      "name": "floatBufferViews",
      "target": 34962
    }
  ],
  "buffers": [
    {
      "byteLength": 23265252,
      "uri": "scene.bin"
    }
  ],
  "extensionsRequired": [
    "KHR_materials_pbrSpecularGlossiness"
  ],
  "extensionsUsed": [
    "KHR_materials_pbrSpecularGlossiness"
  ],
  "images": [
    {
      "uri": "textures/wood_diffuse.png"
    },
    {
      "uri": "textures/wood_specularGlossiness.png"
    }
  ],
  "materials": [
    {
      "doubleSided": true,
      "emissiveFactor": [
        0,
        0,
        0
      ],
      "extensions": {
        "KHR_materials_pbrSpecularGlossiness": {
          "diffuseFactor": [
            1,
            1,
            1,
            1
          ],
          "diffuseTexture": {
            "index": 0,
            "texCoord": 0
          },
          "glossinessFactor": 1,
          "specularFactor": [
            0.039026959342245732,
            0.039026959342245732,
            0.039026959342245732
          ],
          "specularGlossinessTexture": {
            "index": 1,
            "texCoord": 0
          }
        }
      },
      "name": "wood"
    },
    {
      "doubleSided": true,
      "emissiveFactor": [
        0,
        0,
        0
      ],
      "extensions": {
        "KHR_materials_pbrSpecularGlossiness": {
          "diffuseFactor": [
            1,
            1,
            1,
            1
          ],
          "diffuseTexture": {
            "index": 0,
            "texCoord": 0
          },
          "glossinessFactor": 0.056568542494923803,
          "specularFactor": [
            0,
            0,
            0
          ]
        }
      },
      "name": "chair_underneath"
    },
    {
      "doubleSided": true,
      "emissiveFactor": [
        0,
        0,
        0
      ],
      "extensions": {
        "KHR_materials_pbrSpecularGlossiness": {
          "diffuseFactor": [
            1,
            1,
            1,
            1
          ],
          "diffuseTexture": {
            "index": 0,
            "texCoord": 0
          },
          "glossinessFactor": 0.21563142575092198,
          "specularFactor": [
            0.01418223884535132,
            0.01418223884535132,
            0.01418223884535132
          ]
        }
      },
      "name": "marble_top"
    },
    {
      "doubleSided": true,
      "extensions": {
        "KHR_materials_pbrSpecularGlossiness": {
          "diffuseFactor": [
            1,
            1,
            1,
            1
          ],
          "diffuseTexture": {
            "index": 0,
            "texCoord": 0
          },
          "glossinessFactor": 0.64420285432235058,
          "specularFactor": [
            0.001759878596904115,
            0.001759878596904115,
            0.001759878596904115
          ]
        }
      },
      "name": "table_stand"
    }
  ],
  "meshes": [
    {
      "name": "table_wood_0",
      "primitives": [
        {
          "attributes": {
            "NORMAL": 1,
            "POSITION": 0,
            "TANGENT": 2,
            "TEXCOORD_0": 3
          },
          "indices": 4,
          "material": 0,
          "mode": 4
        }
      ]
    },
    {
      "name": "table_wood_0",
      "primitives": [
        {
          "attributes": {
            "NORMAL": 6,
            "POSITION": 5,
            "TANGENT": 7,
            "TEXCOORD_0": 8
          },
          "indices": 9,
          "material": 0,
          "mode": 4
        }
      ]
    },
    {
      "name": "table_wood_0",
      "primitives": [
        {
          "attributes": {
            "NORMAL": 11,
            "POSITION": 10,
            "TANGENT": 12,
            "TEXCOORD_0": 13
          },
          "indices": 14,
          "material": 0,
          "mode": 4
        }
      ]
    },
    {
      "name": "table_wood_0",
      "primitives": [
        {
          "attributes": {
            "NORMAL": 16,
            "POSITION": 15,
            "TANGENT": 17,
            "TEXCOORD_0": 18
          },
          "indices": 19,
          "material": 0,
          "mode": 4
        }
      ]
    },
    {
      "name": "table_wood_0",
      "primitives": [
        {
          "attributes": {
            "NORMAL": 21,
            "POSITION": 20,
            "TANGENT": 22,
            "TEXCOORD_0": 23
          },
          "indices": 24,
          "material": 0,
          "mode": 4
        }
      ]
    },
    {
      "name": "table_chair_underneath_0",
      "primitives": [
        {
          "attributes": {
            "NORMAL": 26,
            "POSITION": 25,
            "TANGENT": 27,
            "TEXCOORD_0": 28
          },
          "indices": 29,
          "material": 1,
          "mode": 4
        }
      ]
    },
    {
      "name": "table_marble_top_0",
      "primitives": [
        {
          "attributes": {
            "NORMAL": 31,
            "POSITION": 30,
            "TANGENT": 32,
            "TEXCOORD_0": 33,
            "TEXCOORD_1": 34
          },
          "indices": 35,
          "material": 2,
          "mode": 4
        }
      ]
    },
    {
      "name": "table_table_stand_0",
      "primitives": [
        {
          "attributes": {
            "NORMAL": 37,
            "POSITION": 36,
            "TANGENT": 38,
            "TEXCOORD_0": 39
          },
          "indices": 40,
          "material": 3,
          "mode": 4
        }
      ]
    }
  ],
  "nodes": [
    {
      "children": [
        1
      ],
      "name": "RootNode (gltf orientation matrix)",
      "rotation": [
        -0.70710678118654746,
        -0,
        -0,
        0.70710678118654757
      ]
    },
    {
      "children": [
        2
      ],
      "name": "RootNode (model correction matrix)"
    },
    {
      "children": [
        3
      ],
      "matrix": [
        1,
        0,
        0,
        0,
        0,
        0,
        1,
        0,
        0,
        -1,
        0,
        0,
        0,
        0,
        0,
        1
      ],
      "name": "0bd42b4753354c488748ba2a2e31efca.fbx"
    },
    {
      "children": [
        4
      ],
      "name": "RootNode"
    },
    {
      "children": [
        5,
        6,
        7,
        8,
        9,
        10,
        11,
        12
      ],
      "matrix": [
        100,
        0,
        0,
        0,
        0,
        -1.6292067939183141e-05,
        -99.999999999998678,
        0,
        0,
        99.999999999998678,
        -1.6292067939183141e-05,
        0,
        0,
        67.488845825195312,
        0,
        1
      ],
      "name": "table"
    },
    {
      "mesh": 0,
      "name": "table_wood_0"
    },
    {
      "mesh": 1,
      "name": "table_wood_0"
    },
    {
      "mesh": 2,
      "name": "table_wood_0"
    },
    {
      "mesh": 3,
      "name": "table_wood_0"
    },
    {
      "mesh": 4,
      "name": "table_wood_0"
    },
    {
      "mesh": 5,
      "name": "table_chair_underneath_0"
    },
    {
      "mesh": 6,
      "name": "table_marble_top_0"
    },
    {
      "mesh": 7,
      "name": "table_table_stand_0"
    }
  ],
  "samplers": [
    {
      "magFilter": 9729,
      "minFilter": 9987,
      "wrapS": 10497,
      "wrapT": 10497
    }
  ],
  "scene": 0,
  "scenes": [
    {
      "name": "OSG_Scene",
      "nodes": [
        0
      ]
    }
  ],
  "textures": [
    {
      "sampler": 0,
      "source": 0
    },
    {
      "sampler": 0,
      "source": 1
    }
  ]
}

