{
  "accessors": [
    {
      "bufferView": 2,
      "componentType": 5126,
      "count": 5855,
      "max": [
        5.6226458549499512,
        20.169744491577148,
        17.635599136352539
      ],
      "min": [
        -5.6263937950134277,
        3.5129761695861816,
        -7.3543763160705566
      ],
      "type": "VEC3"
    },
    {
      "bufferView": 2,
      "byteOffset": 70260,
      "componentType": 5126,
      "count": 5855,
      "max": [
        0.99998009204864502,
        1,
        1
      ],
      "min": [
        -0.99998009204864502,
        -1,
        -1
      ],
      "type": "VEC3"
    },
    {
      "bufferView": 3,
      "componentType": 5126,
      "count": 5855,
      "max": [
        0.99823367595672607,
        0.99994564056396484,
        1,
        1
      ],
      "min": [
        -0.99774336814880371,
        -0.99997621774673462,
        -1,
        1
      ],
      "type": "VEC4"
    },
    {
      "bufferView": 1,
      "componentType": 5126,
      "count": 5855,
      "max": [
        0.9995003342628479,
        0.960906982421875
      ],
      "min": [
        0.00049948692321777344,
        0.00048020482063293457
      ],
      "type": "VEC2"
    },
    {
      "bufferView": 0,
      "componentType": 5125,
      "count": 31272,
      "max": [
        5854
      ],
      "min": [
        0
      ],
      "type": "SCALAR"
    },
    {
      "bufferView": 2,
      "byteOffset": 140520,
      "componentType": 5126,
      "count": 7373,
      "max": [
        5.6169571876525879,
        20.188987731933594,
        17.769510269165039
      ],
      "min": [
        -5.6134281158447266,
        3.7771034240722656,
        -7.1150403022766113
      ],
      "type": "VEC3"
    },
    {
      "bufferView": 2,
      "byteOffset": 228996,
      "componentType": 5126,
      "count": 7373,
      "max": [
        0.99997520446777344,
        0.99998921155929565,
        0.99988734722137451
      ],
      "min": [
        -0.99996137619018555,
        -0.99999809265136719,
        -0.99924516677856445
      ],
      "type": "VEC3"
    },
    {
      "bufferView": 3,
      "byteOffset": 93680,
      "componentType": 5126,
      "count": 7373,
      "max": [
        0.99999988079071045,
        0.99912106990814209,
        1,
        1
      ],
      "min": [
        -0.7610703706741333,
        -0.9998820424079895,
        -1,
        1
      ],
      "type": "VEC4"
    },
    {
      "bufferView": 1,
      "byteOffset": 46840,
      "componentType": 5126,
      "count": 7373,
      "max": [
        0.99950051307678223,
        0.95437973737716675
      ],
      "min": [
        0.00049950182437896729,
        0.00047695636749267578
      ],
      "type": "VEC2"
    },
    {
      "bufferView": 0,
      "byteOffset": 125088,
      "componentType": 5125,
      "count": 28080,
      "max": [
        7372
      ],
      "min": [
        0
      ],
      "type": "SCALAR"
    },
    {
      "bufferView": 2,
      "byteOffset": 317472,
      "componentType": 5126,
      "count": 2698,
      "max": [
        6.2623376846313477,
        6.3217811584472656,
        17.94219970703125
      ],
      "min": [
        -6.2623376846313477,
        0.037127457559108734,
        -5.1471672058105469
      ],
      "type": "VEC3"
    },
    {
      "bufferView": 2,
      "byteOffset": 349848,
      "componentType": 5126,
      "count": 2698,
      "max": [
        1,
        1,
        1
      ],
      "min": [
        -1,
        -1,
        -1
      ],
      "type": "VEC3"
    },
    {
      "bufferView": 3,
      "byteOffset": 211648,
      "componentType": 5126,
      "count": 2698,
      "max": [
        0.99999767541885376,
        0.99999946355819702,
        0.99999701976776123,
        1
      ],
      "min": [
        -0.99999320507049561,
        -0.99999314546585083,
        -1,
        -1
      ],
      "type": "VEC4"
    },
    {
      "bufferView": 1,
      "byteOffset": 105824,
      "componentType": 5126,
      "count": 2698,
      "max": [
        0.99647557735443115,
        0.9935154914855957
      ],
      "min": [
        0.00046014785766601562,
        0.00049948692321777344
      ],
      "type": "VEC2"
    },
    {
      "bufferView": 0,
      "byteOffset": 237408,
      "componentType": 5125,
      "count": 11784,
      "max": [
        2697
      ],
      "min": [
        0
      ],
      "type": "SCALAR"
    },
    {
      "bufferView": 2,
      "byteOffset": 382224,
      "componentType": 5126,
      "count": 3136,
      "max": [
        4.8778238296508789,
        9.4714822769165039,
        2.7471294403076172
      ],
      "min": [
        -4.881103515625,
        9.1644601821899414,
        0.93700623512268066
      ],
      "type": "VEC3"
    },
    {
      "bufferView": 2,
      "byteOffset": 419856,
      "componentType": 5126,
      "count": 3136,
      "max": [
        0.99939137697219849,
        0.99983310699462891,
        1
      ],
      "min": [
        -0.99939131736755371,
        -0.99939167499542236,
        -1
      ],
      "type": "VEC3"
    },
    {
      "bufferView": 3,
      "byteOffset": 254816,
      "componentType": 5126,
      "count": 3136,
      "max": [
        0.99611902236938477,
        0.9997934103012085,
        1,
        1
      ],
      "min": [
        -0.99316632747650146,
        -0.99978059530258179,
        -1,
        1
      ],
      "type": "VEC4"
    },
    {
      "bufferView": 1,
      "byteOffset": 127408,
      "componentType": 5126,
      "count": 3136,
      "max": [
        0.73743629455566406,
        0.99933558702468872
      ],
      "min": [
        0.053846240043640137,
        0.69618010520935059
      ],
      "type": "VEC2"
    },
    {
      "bufferView": 0,
      "byteOffset": 284544,
      "componentType": 5125,
      "count": 12000,
      "max": [
        3135
      ],
      "min": [
        0
      ],
      "type": "SCALAR"
    }
  ],
  "asset": {
    "extras": {
      "author": "prithwi7s.17 (https://sketchfab.com/prithwi7s.17)",
      "license": "CC-BY-4.0 (http://creativecommons.org/licenses/by/4.0/)",
      "source": "https://sketchfab.com/3d-models/armchair-low-1-995fa1e626284e50b9d536a59e50583b",
      "title": "Armchair Low 1"
    },
    "generator": "Sketchfab-9.99.1",
    "version": "2.0"
  },
  "bufferViews": [
    {
      "buffer": 0,
      "byteLength": 332544,
      "byteOffset": 0,
      "name": "floatBufferViews",
      "target": 34963
    },
    {
      "buffer": 0,
      "byteLength": 152496,
      "byteOffset": 332544,
      "byteStride": 8,
      "name": "floatBufferViews",
      "target": 34962
    },
    {
      "buffer": 0,
      "byteLength": 457488,
      "byteOffset": 485040,
      "byteStride": 12,
      "name": "floatBufferViews",
      "target": 34962
    },
    {
      "buffer": 0,
      "byteLength": 304992,
      "byteOffset": 942528,
      "byteStride": 16,
      "name": "floatBufferViews",
      "target": 34962
    }
  ],
  "buffers": [
    {
      "byteLength": 1247520,
      "uri": "scene.bin"
    }
  ],
  "images": [
    {
      "uri": "textures/chair_1_low_baseColor.jpeg"
    },
    {
      "uri": "textures/chair_1_low_metallicRoughness.png"
    },
    {
      "uri": "textures/chair_1_low_normal.png"
    },
    {
      "uri": "textures/chair_2_low_baseColor.jpeg"
    },
    {
      "uri": "textures/chair_2_low_metallicRoughness.png"
    },
    {
      "uri": "textures/chair_2_low_normal.png"
    },
    {
      "uri": "textures/stand_low1_baseColor.jpeg"
    },
    {
      "uri": "textures/stand_low1_metallicRoughness.png"
    },
    {
      "uri": "textures/stand_low1_normal.png"
    }
  ],
  "materials": [
    {
      "doubleSided": true,
      "name": "chair_1_low",
      "normalTexture": {
        "index": 2,
        "scale": 1,
        "texCoord": 0
      },
      "occlusionTexture": {
        "index": 1,
        "strength": 1,
        "texCoord": 0
      },
      "pbrMetallicRoughness": {
        "baseColorFactor": [
          1,
          1,
          1,
          1
        ],
        "baseColorTexture": {
          "index": 0,
          "texCoord": 0
        },
        "metallicFactor": 1,
        "metallicRoughnessTexture": {
          "index": 1,
          "texCoord": 0
        },
        "roughnessFactor": 1
      }
    },
    {
      "doubleSided": true,
      "name": "chair_2_low",
      "normalTexture": {
        "index": 5,
        "scale": 1,
        "texCoord": 0
      },
      "occlusionTexture": {
        "index": 4,
        "strength": 1,
        "texCoord": 0
      },
      "pbrMetallicRoughness": {
        "baseColorFactor": [
          1,
          1,
          1,
          1
        ],
        "baseColorTexture": {
          "index": 3,
          "texCoord": 0
        },
        "metallicFactor": 1,
        "metallicRoughnessTexture": {
          "index": 4,
          "texCoord": 0
        },
        "roughnessFactor": 1
      }
    },
    {
      "doubleSided": true,
      "name": "stand_low1",
      "normalTexture": {
        "index": 8,
        "scale": 1,
        "texCoord": 0
      },
      "occlusionTexture": {
        "index": 7,
        "strength": 1,
        "texCoord": 0
      },
      "pbrMetallicRoughness": {
        "baseColorFactor": [
          1,
          1,
          1,
          1
        ],
        "baseColorTexture": {
          "index": 6,
          "texCoord": 0
        },
        "metallicFactor": 1,
        "metallicRoughnessTexture": {
          "index": 7,
          "texCoord": 0
        },
        "roughnessFactor": 1
      }
    }
  ],
  "meshes": [
    {
      "name": "polySurface67_chair_1_low_0",
      "primitives": [
        {
          "attributes": {
            "NORMAL": 1,
            "POSITION": 0,
            "TANGENT": 2,
            "TEXCOORD_0": 3
          },
          "indices": 4,
          "material": 0,
          "mode": 4
        }
      ]
    },
    {
      "name": "polySurface68_chair_2_low_0",
      "primitives": [
        {
          "attributes": {
            "NORMAL": 6,
            "POSITION": 5,
            "TANGENT": 7,
            "TEXCOORD_0": 8
          },
          "indices": 9,
          "material": 1,
          "mode": 4
        }
      ]
    },
    {
      "name": "polySurface69_stand_low1_0",
      "primitives": [
        {
          "attributes": {
            "NORMAL": 11,
            "POSITION": 10,
            "TANGENT": 12,
            "TEXCOORD_0": 13
          },
          "indices": 14,
          "material": 2,
          "mode": 4
        }
      ]
    },
    {
      "name": "pSphere5_stand_low1_0",
      "primitives": [
        {
          "attributes": {
            "NORMAL": 16,
            "POSITION": 15,
            "TANGENT": 17,
            "TEXCOORD_0": 18
          },
          "indices": 19,
          "material": 2,
          "mode": 4
        }
      ]
    }
  ],
  "nodes": [
    {
      "children": [
        1
      ],
      "name": "RootNode (gltf orientation matrix)",
      "rotation": [
        -0.70710678118654746,
        -0,
        -0,
        0.70710678118654757
      ]
    },
    {
      "children": [
        2
      ],
      "name": "RootNode (model correction matrix)"
    },
    {
      "children": [
        3
      ],
      "matrix": [
        1,
        0,
        0,
        0,
        0,
        0,
        1,
        0,
        0,
        -1,
        0,
        0,
        0,
        0,
        0,
        1
      ],
      "name": "fe4b931d8123474d8cf909b70793629e.fbx"
    },
    {
      "children": [
        4,
        7,
        10
      ],
      "name": "RootNode"
    },
    {
      "children": [
        5
      ],
      "name": "chair_1_LOW"
    },
    {
      "children": [
        6
      ],
      "matrix": [
        1,
        0,
        0,
        0,
        0,
        1,
        0,
        0,
        0,
        0,
        1,
        0,
        0,
        4.4408920985006262e-16,
        -4.4408920985006262e-16,
        1
      ],
      "name": "polySurface67"
    },
    {
      "mesh": 0,
      "name": "polySurface67_chair_1_low_0"
    },
    {
      "children": [
        8
      ],
      "name": "chair_2_LOW"
    },
    {
      "children": [
        9
      ],
      "name": "polySurface68"
    },
    {
      "mesh": 1,
      "name": "polySurface68_chair_2_low_0"
    },
    {
      "children": [
        11,
        13
      ],
      "name": "stand_LOW"
    },
    {
      "children": [
        12
      ],
      "name": "polySurface69"
    },
    {
      "mesh": 2,
      "name": "polySurface69_stand_low1_0"
    },
    {
      "children": [
        14
      ],
      "name": "pSphere5"
    },
    {
      "mesh": 3,
      "name": "pSphere5_stand_low1_0"
    }
  ],
  "samplers": [
    {
      "magFilter": 9729,
      "minFilter": 9987,
      "wrapS": 10497,
      "wrapT": 10497
    }
  ],
  "scene": 0,
  "scenes": [
    {
      "name": "OSG_Scene",
      "nodes": [
        0
      ]
    }
  ],
  "textures": [
    {
      "sampler": 0,
      "source": 0
    },
    {
      "sampler": 0,
      "source": 1
    },
    {
      "sampler": 0,
      "source": 2
    },
    {
      "sampler": 0,
      "source": 3
    },
    {
      "sampler": 0,
      "source": 4
    },
    {
      "sampler": 0,
      "source": 5
    },
    {
      "sampler": 0,
      "source": 6
    },
    {
      "sampler": 0,
      "source": 7
    },
    {
      "sampler": 0,
      "source": 8
    }
  ]
}

